<svg width="251" height="42" viewBox="0 0 251 42" fill="none" xmlns="http://www.w3.org/2000/svg">
<rect width="251" height="42" fill="#F4F4F4"/>
<g clip-path="url(#clip0_0_1)">
<rect width="1728" height="2630" transform="translate(-456 -506)" fill="white"/>
<rect width="251" height="42" rx="21" fill="url(#paint0_linear_0_1)"/>
<path d="M45.2222 11V15.4444M43 13.2222H47.4444M46.3333 26.5556V31M44.1111 28.7778H48.5556M54.1111 11L56.6511 18.6189L63 21L56.6511 23.3811L54.1111 31L51.5711 23.3811L45.2222 21L51.5711 18.6189L54.1111 11Z" stroke="white" stroke-width="1.5" stroke-linecap="round" stroke-linejoin="round"/>
<path d="M77.1392 26.3789H79.2001V21.9583H81.5747C82.9039 21.9583 83.5162 22.5258 83.6357 23.84C83.7551 25.3335 83.7551 26.1997 84.0389 26.3789H86.1297V26.2744C85.831 26.125 85.8161 25.214 85.6369 23.5862C85.5174 22.2122 85.0843 21.5401 83.9045 21.1817V21.1369C85.3531 20.6739 85.9505 19.7181 85.9505 18.3889C85.9505 16.4475 84.4571 15.2676 82.3812 15.2676H77.1392V26.3789ZM79.2001 16.9552H81.963C83.2922 16.9552 83.8746 17.5825 83.8746 18.6876C83.8746 19.7181 83.1876 20.3752 81.8883 20.3752H79.2001V16.9552ZM91.1197 26.6179C93.0761 26.6179 94.3605 25.5575 94.7488 24.1238H92.8969C92.643 24.7809 92.0457 25.1692 91.1347 25.1692C89.8055 25.1692 89.0737 24.2433 88.9393 22.8693H94.8982C94.9131 21.3908 94.5397 20.1363 93.7631 19.3149C93.0911 18.598 92.1801 18.1948 91.0152 18.1948C88.6555 18.1948 87.0575 20.0317 87.0575 22.4063C87.0575 24.766 88.5809 26.6179 91.1197 26.6179ZM91.0152 19.5688C92.1651 19.5688 92.8671 20.3603 92.9417 21.6745H88.9692C89.1334 20.42 89.7756 19.5688 91.0152 19.5688ZM99.7655 29.1567C100.886 29.1567 101.856 28.9028 102.513 28.3503C103.141 27.7977 103.514 26.9763 103.514 25.8562V18.4039H101.677V19.4344H101.647C101.169 18.5831 100.408 18.1948 99.2876 18.1948C97.376 18.1948 95.9124 19.7181 95.9124 22.1076C95.9124 24.4822 97.4507 25.9458 99.3922 25.9458C100.453 25.9458 101.154 25.5127 101.647 24.7212H101.692C101.677 24.99 101.662 25.3932 101.662 25.8263V26.0205C101.662 27.1704 101.005 27.7678 99.7356 27.7678C98.6902 27.7678 98.0779 27.4393 97.9435 26.7821H96.1215C96.3156 28.2905 97.6299 29.1567 99.7655 29.1567ZM99.7356 24.4822C98.4961 24.4822 97.7942 23.5414 97.7942 22.0778C97.7942 20.6142 98.4811 19.6733 99.7207 19.6733C101.08 19.6733 101.737 20.6291 101.737 22.0479C101.737 23.4368 101.184 24.4822 99.7356 24.4822ZM108.927 26.6179C110.884 26.6179 112.168 25.5575 112.556 24.1238H110.705C110.451 24.7809 109.853 25.1692 108.942 25.1692C107.613 25.1692 106.881 24.2433 106.747 22.8693H112.706C112.721 21.3908 112.347 20.1363 111.571 19.3149C110.899 18.598 109.988 18.1948 108.823 18.1948C106.463 18.1948 104.865 20.0317 104.865 22.4063C104.865 24.766 106.388 26.6179 108.927 26.6179ZM108.823 19.5688C109.973 19.5688 110.675 20.3603 110.749 21.6745H106.777C106.941 20.42 107.583 19.5688 108.823 19.5688ZM115.886 18.4039H114.034V26.3789H115.93V21.7044C115.93 20.5694 116.677 19.7629 117.737 19.7629C118.708 19.7629 119.261 20.3454 119.261 21.2862V26.3789H121.157V20.9726C121.157 19.2551 120.127 18.1948 118.409 18.1948C117.289 18.1948 116.453 18.6876 115.93 19.5688H115.886V18.4039ZM126.487 26.6179C128.443 26.6179 129.728 25.5575 130.116 24.1238H128.264C128.01 24.7809 127.413 25.1692 126.502 25.1692C125.173 25.1692 124.441 24.2433 124.307 22.8693H130.265C130.28 21.3908 129.907 20.1363 129.13 19.3149C128.458 18.598 127.547 18.1948 126.383 18.1948C124.023 18.1948 122.425 20.0317 122.425 22.4063C122.425 24.766 123.948 26.6179 126.487 26.6179ZM126.383 19.5688C127.532 19.5688 128.234 20.3603 128.309 21.6745H124.336C124.501 20.42 125.143 19.5688 126.383 19.5688ZM133.43 18.4039H131.593V26.3789H133.49V22.3765C133.49 20.8382 134.431 19.9869 135.685 20.0019C135.88 20.0019 136.029 20.0168 136.208 20.0616H136.268V18.3591C136.133 18.2993 135.984 18.2844 135.76 18.2844C134.745 18.2844 133.983 18.8071 133.475 19.8376H133.43V18.4039ZM142.463 26.3789H144.3V26.2445C144.121 26.125 144.002 25.7815 144.002 25.1244V20.9278C144.002 19.8675 143.613 19.1058 142.866 18.6578C142.344 18.3292 141.642 18.1948 140.731 18.1948C138.461 18.1948 137.386 19.4344 137.326 20.7934H139.118C139.163 20.0019 139.685 19.509 140.746 19.509C141.702 19.509 142.179 19.972 142.179 20.659C142.179 21.3758 141.522 21.5849 140.208 21.7492C138.311 21.9732 136.937 22.4063 136.937 24.2134C136.937 25.7666 138.102 26.5731 139.656 26.5731C140.925 26.5731 141.642 26.0503 142.165 25.3484H142.194C142.224 25.8861 142.329 26.1997 142.463 26.3789ZM140.208 25.2738C139.476 25.2738 138.834 25.0199 138.834 24.1686C138.834 23.2875 139.506 23.0485 140.671 22.8245C141.254 22.705 141.851 22.5407 142.224 22.3018V23.4816C142.224 24.3777 141.507 25.2738 140.208 25.2738ZM145.131 19.7032H146.356V24.5868C146.356 25.9906 147.237 26.4536 148.521 26.4536C149.029 26.4536 149.462 26.3938 149.776 26.3341V24.8556H149.686C149.537 24.8855 149.268 24.9153 149.074 24.9153C148.536 24.9153 148.223 24.751 148.223 24.1686V19.7032H149.821V18.4039H148.223V15.865H146.356V18.4039H145.131V19.7032ZM154.81 26.6179C156.767 26.6179 158.051 25.5575 158.439 24.1238H156.587C156.333 24.7809 155.736 25.1692 154.825 25.1692C153.496 25.1692 152.764 24.2433 152.63 22.8693H158.589C158.603 21.3908 158.23 20.1363 157.454 19.3149C156.781 18.598 155.87 18.1948 154.706 18.1948C152.346 18.1948 150.748 20.0317 150.748 22.4063C150.748 24.766 152.271 26.6179 154.81 26.6179ZM154.706 19.5688C155.856 19.5688 156.557 20.3603 156.632 21.6745H152.66C152.824 20.42 153.466 19.5688 154.706 19.5688ZM163.261 17.0448H166.726V26.3789H168.801V17.0448H172.281V15.2676H163.261V17.0448ZM175.52 26.6179C178 26.6179 179.568 24.766 179.568 22.4063C179.568 20.0317 178 18.1948 175.52 18.1948C173.041 18.1948 171.443 20.0317 171.443 22.4063C171.443 24.766 173.041 26.6179 175.52 26.6179ZM175.505 25.1841C174.102 25.1841 173.37 24.0043 173.37 22.4063C173.37 20.7934 174.102 19.5986 175.505 19.5986C176.894 19.5986 177.641 20.7934 177.641 22.4063C177.641 24.0043 176.894 25.1841 175.505 25.1841ZM186.116 26.3789H188.326L185.055 21.3161L187.982 18.4039H185.727L182.725 21.5252C182.74 21.0622 182.785 20.3304 182.785 19.5688V15.2676H180.903V26.3789H182.785V23.4965L183.726 22.5557L186.116 26.3789ZM192.526 26.6179C194.482 26.6179 195.766 25.5575 196.155 24.1238H194.303C194.049 24.7809 193.451 25.1692 192.54 25.1692C191.211 25.1692 190.48 24.2433 190.345 22.8693H196.304C196.319 21.3908 195.946 20.1363 195.169 19.3149C194.497 18.598 193.586 18.1948 192.421 18.1948C190.061 18.1948 188.463 20.0317 188.463 22.4063C188.463 24.766 189.987 26.6179 192.526 26.6179ZM192.421 19.5688C193.571 19.5688 194.273 20.3603 194.348 21.6745H190.375C190.539 20.42 191.181 19.5688 192.421 19.5688ZM199.484 18.4039H197.632V26.3789H199.529V21.7044C199.529 20.5694 200.275 19.7629 201.336 19.7629C202.306 19.7629 202.859 20.3454 202.859 21.2862V26.3789H204.756V20.9726C204.756 19.2551 203.725 18.1948 202.008 18.1948C200.888 18.1948 200.051 18.6876 199.529 19.5688H199.484V18.4039ZM209.622 26.6328C211.594 26.6328 213.027 25.7517 213.027 24.079C213.027 22.1375 211.534 21.7791 210.026 21.4953C208.816 21.2713 207.994 21.1369 207.994 20.435C207.994 19.8824 208.457 19.4792 209.339 19.4792C210.279 19.4792 210.787 19.8525 210.922 20.5395H212.729C212.535 19.1506 211.474 18.1948 209.353 18.1948C207.487 18.1948 206.202 19.061 206.202 20.5694C206.202 22.3765 207.621 22.72 209.115 23.0186C210.369 23.2576 211.175 23.4069 211.175 24.1985C211.175 24.8407 210.683 25.2887 209.637 25.2887C208.622 25.2887 207.89 24.8855 207.741 23.9296H205.919C206.038 25.5426 207.352 26.6328 209.622 26.6328Z" fill="white"/>
</g>
<defs>
<linearGradient id="paint0_linear_0_1" x1="0" y1="0" x2="249.19" y2="96.0693" gradientUnits="userSpaceOnUse">
<stop stop-color="#7B61FF"/>
<stop offset="1" stop-color="#00DAD9"/>
</linearGradient>
<clipPath id="clip0_0_1">
<rect width="1728" height="2630" fill="white" transform="translate(-456 -506)"/>
</clipPath>
</defs>
</svg>
