<svg width="214" height="214" viewBox="0 0 214 214" fill="none" xmlns="http://www.w3.org/2000/svg">
<path d="M135.785 52.0181C140.968 48.6604 147.644 53.1717 146.461 59.2334L143.051 76.7152C142.32 80.4616 144.725 84.1029 148.458 84.9008L165.876 88.6241C171.915 89.9151 173.445 97.8252 168.323 101.275L153.55 111.225C150.384 113.358 149.51 117.633 151.585 120.837L161.269 135.786C164.627 140.969 160.115 147.645 154.054 146.462L136.572 143.052C132.825 142.321 129.184 144.726 128.386 148.459L124.663 165.877C123.372 171.916 115.462 173.446 112.012 168.324L102.062 153.551C99.9293 150.385 95.6537 149.511 92.45 151.586L77.501 161.27C72.3176 164.628 65.6424 160.116 66.8249 154.055L70.2351 136.573C70.966 132.826 68.5607 129.185 64.8279 128.387L47.4102 124.664C41.3707 123.373 39.8406 115.463 44.963 112.013L59.7359 102.063C62.9018 99.9302 63.7758 95.6547 61.7005 92.451L52.0171 77.502C48.6594 72.3185 53.1707 65.6433 59.2325 66.8258L76.7142 70.2361C80.4606 70.9669 84.1019 68.5616 84.8998 64.8289L88.6231 47.4111C89.9142 41.3716 97.8242 39.8415 101.274 44.964L111.224 59.7369C113.357 62.9028 117.632 63.7767 120.836 61.7015L135.785 52.0181Z" fill="#87FDDD"/>
<path d="M97.9904 92.6681C101.829 94.8841 105.411 94.4396 107.307 91.1556C109.203 87.8717 107.797 84.5472 103.958 82.3312C100.12 80.1152 96.5518 80.5677 94.6558 83.8516C92.7598 87.1356 94.1521 90.4521 97.9904 92.6681ZM99.3184 90.3679C97.1845 89.1359 96.4681 87.3367 97.5241 85.5076C98.5801 83.6786 100.51 83.4074 102.63 84.6314C104.764 85.8634 105.481 87.6626 104.425 89.4916C103.369 91.3207 101.452 91.5999 99.3184 90.3679ZM113.917 90.9078C114.277 90.2843 114.949 90.2098 115.822 90.7138C116.251 90.9618 116.638 91.3148 116.995 91.8165L118.271 90.5025C117.796 89.8216 116.859 89.0772 116.083 88.6292C114.226 87.5572 112.299 87.6637 111.143 89.6015L109.785 88.8175L108.673 90.7435L110.031 91.5275L106.711 97.2779L109.441 98.8539L112.761 93.1035L115.684 94.7915L116.796 92.8655L113.789 91.1295L113.917 90.9078ZM121.4 95.2281C121.76 94.6046 122.432 94.5302 123.305 95.0342C123.734 95.2822 124.121 95.6352 124.478 96.1369L125.754 94.8228C125.279 94.142 124.342 93.3975 123.566 92.9495C121.709 91.8775 119.782 91.9841 118.626 93.9218L117.268 93.1378L116.156 95.0638L117.514 95.8478L114.194 101.598L116.924 103.174L120.244 97.4238L123.167 99.1118L124.279 97.1858L121.272 95.4498L121.4 95.2281ZM128.982 105.961L130.222 103.813L123.598 99.9889L122.358 102.137L128.982 105.961ZM86.4739 94.6008L80.114 97.1365L79.1577 90.3768L76.0678 88.5928L70.4678 98.2923L73.1975 99.8683L76.7735 93.6745L77.9034 100.645L78.042 100.725L84.6439 98.2185L81.0679 104.412L83.8808 106.036L89.4808 96.3368L86.4739 94.6008ZM94.7357 101.662C93.4055 100.894 91.6579 100.273 90.3306 100.171L89.9542 102.264C91.1684 102.336 92.1411 102.732 93.0556 103.26C94.7322 104.228 95.2713 105.278 94.5993 106.442L94.3113 106.941C94.0894 105.981 93.2944 104.894 91.9365 104.11C90.3153 103.174 87.8827 102.619 86.7467 104.587C85.6107 106.555 87.3073 108.384 88.9285 109.32C90.2864 110.104 91.6254 110.249 92.5593 109.975L92.5513 109.989C92.3993 110.252 92.3422 110.607 92.3586 110.931L95.1299 112.531C95.1503 111.952 95.3173 111.438 95.6373 110.884L97.2853 108.03C98.6533 105.66 97.6594 103.35 94.7357 101.662ZM93.4548 108.552C92.4962 108.997 91.4143 108.631 90.6244 108.175C89.8485 107.727 88.9213 106.933 89.3933 106.115C89.8653 105.298 91.0165 105.704 91.7924 106.152C92.5823 106.608 93.4402 107.362 93.5428 108.4L93.4548 108.552ZM99.4179 115.007L101.554 111.307C102.684 110.278 104.222 110.335 105.857 111.279L107.169 109.006C105.797 108.214 104.287 108.045 103.026 108.757L103.85 107.33L101.12 105.754L96.6882 113.431L99.4179 115.007ZM110.401 121.348L113.338 123.044L112.584 116.511L117.576 115.255L114.514 113.487L109.051 114.822L112.483 108.878L109.753 107.302L103.833 117.556L106.563 119.132L107.571 117.386L109.879 116.908L110.401 121.348ZM117.833 121.297L124.845 125.345C124.988 125.225 125.106 125.053 125.282 124.748C126.85 122.032 125.682 119.51 122.911 117.91C119.835 116.134 117.052 116.634 115.564 119.211C114.076 121.789 115.063 124.464 118.319 126.344C120.065 127.352 121.702 127.78 123.357 127.442L122.811 125.187C121.713 125.329 120.811 125.196 119.591 124.492C118.04 123.596 117.383 122.589 117.833 121.297ZM121.835 119.838C122.999 120.51 123.485 121.364 123.256 122.433L118.751 119.868C119.592 119.116 120.657 119.158 121.835 119.838ZM131.601 130.595C131.038 130.547 130.52 130.451 130.063 130.187C129.329 129.763 129.048 129.065 129.448 128.372L131.048 125.601L133.999 127.305L135.111 125.379L132.16 123.675L133.192 121.887L130.462 120.311L129.43 122.099L128.072 121.315L126.96 123.241L128.318 124.025L126.454 127.254C125.382 129.11 126.146 130.826 127.892 131.834C128.821 132.37 130.062 132.717 131.026 132.646L131.601 130.595Z" fill="black"/>
</svg>
